<svg width="240" height="60" fill="none" xmlns="http://www.w3.org/2000/svg"><path d="M203.548 47.445h31.53m-233.045.038h31.53" stroke="#1E7990" stroke-width="2.185"/><path d="M49.966 38.308h5.936c.776 0 1.561.063 2.358.19a5.634 5.634 0 012.139.782c.63.397 1.145.948 1.543 1.654.397.706.596 1.638.596 2.8 0 1.044-.311 1.953-.932 2.726-.621.774-1.542 1.286-2.764 1.537v.058c.679.059 1.3.218 1.862.48.563.26 1.048.608 1.455 1.044.407.435.722.952.946 1.551.222.6.334 1.258.334 1.973 0 1.18-.228 2.141-.684 2.886-.456.744-1.029 1.33-1.717 1.754a6.576 6.576 0 01-2.24.87 11.96 11.96 0 01-2.256.232h-6.577V38.308zm1.92 8.876h3.988c.99 0 1.793-.12 2.415-.361.62-.242 1.106-.537 1.455-.886.35-.348.582-.72.698-1.116.116-.395.175-.76.175-1.087 0-.715-.121-1.31-.364-1.784a3.027 3.027 0 00-.975-1.132 3.94 3.94 0 00-1.426-.594 8.22 8.22 0 00-1.716-.175h-4.25v7.135zm0 9.922h4.395c1.126 0 2.032-.136 2.721-.406.69-.27 1.218-.61 1.587-1.016.367-.405.615-.836.741-1.29a4.63 4.63 0 00.19-1.233c0-.755-.146-1.403-.437-1.944a3.87 3.87 0 00-1.136-1.32 4.687 4.687 0 00-1.585-.74 7.077 7.077 0 00-1.79-.231h-4.685v8.18zm20.692-18.798h1.92v20.537h-1.92V38.308zm10.504 10.269c0-1.567.262-3.006.787-4.322.523-1.315 1.25-2.451 2.182-3.409.932-.957 2.052-1.706 3.362-2.248 1.31-.54 2.75-.812 4.322-.812 1.57 0 3.01.271 4.321.812 1.31.542 2.43 1.291 3.361 2.248.931.958 1.659 2.094 2.183 3.41.523 1.315.785 2.754.785 4.321 0 1.567-.262 3.012-.785 4.337-.525 1.324-1.252 2.465-2.183 3.422-.931.957-2.051 1.701-3.36 2.234-1.31.53-2.751.798-4.323.798-1.57 0-3.012-.267-4.321-.798-1.31-.532-2.43-1.277-3.362-2.234-.93-.957-1.66-2.098-2.183-3.422-.524-1.324-.786-2.77-.786-4.337zm1.921 0c0 1.277.204 2.465.612 3.568a8.47 8.47 0 001.746 2.872 8.073 8.073 0 002.749 1.914c1.077.464 2.285.695 3.624.695 1.338 0 2.546-.231 3.622-.695a8.086 8.086 0 002.75-1.914 8.463 8.463 0 001.746-2.872c.408-1.103.611-2.29.611-3.568 0-1.277-.203-2.465-.611-3.568a8.463 8.463 0 00-1.746-2.872 8.062 8.062 0 00-2.75-1.914c-1.076-.464-2.285-.696-3.622-.696-1.338 0-2.547.231-3.624.696a8.078 8.078 0 00-2.75 1.914 8.47 8.47 0 00-1.745 2.872c-.408 1.102-.612 2.29-.612 3.568zm27.966-10.269h2.474l12.543 17.985h.058V38.308h1.92v20.537h-2.472l-12.544-17.984h-.059v17.984h-1.921l.001-20.537zm26.919 0h1.92v20.537h-1.92V38.308zm28.81 17.317c-.989 1.335-2.134 2.291-3.434 2.873-1.3.58-2.707.87-4.219.87-1.573 0-3.013-.267-4.322-.798-1.31-.532-2.429-1.277-3.361-2.234-.931-.957-1.659-2.098-2.182-3.422-.525-1.324-.786-2.77-.786-4.337 0-1.567.262-3.006.786-4.322.523-1.315 1.251-2.451 2.182-3.409.932-.957 2.051-1.706 3.361-2.248 1.309-.54 2.75-.812 4.322-.812 1.396 0 2.701.247 3.913.74 1.213.492 2.275 1.32 3.186 2.48l-1.571 1.304c-.641-.967-1.46-1.672-2.46-2.118a7.486 7.486 0 00-3.069-.666c-1.339 0-2.548.231-3.624.696a8.093 8.093 0 00-2.75 1.914 8.453 8.453 0 00-1.746 2.872c-.408 1.102-.612 2.29-.612 3.568 0 1.277.204 2.465.612 3.568a8.447 8.447 0 001.746 2.872 8.07 8.07 0 002.75 1.914c1.076.464 2.285.695 3.624.695.523 0 1.067-.062 1.628-.188a7.427 7.427 0 001.644-.58 7.988 7.988 0 001.529-.986 6.317 6.317 0 001.28-1.436l1.573 1.19zm8.352-.58c.504.87 1.158 1.518 1.963 1.944.806.425 1.722.637 2.751.637.64 0 1.242-.096 1.805-.29a4.589 4.589 0 001.469-.811c.417-.349.746-.77.989-1.262a3.748 3.748 0 00.363-1.668c0-.715-.15-1.306-.451-1.77a3.616 3.616 0 00-1.207-1.146 8.949 8.949 0 00-1.703-.769 115.62 115.62 0 00-1.95-.638 21.126 21.126 0 01-1.95-.725 6.508 6.508 0 01-1.703-1.06 4.736 4.736 0 01-1.207-1.638c-.302-.657-.451-1.47-.451-2.438 0-.907.18-1.716.538-2.422a5.18 5.18 0 011.454-1.77 6.506 6.506 0 012.11-1.072 8.568 8.568 0 012.504-.363c1.125 0 2.169.199 3.129.594.959.396 1.789 1.059 2.487 1.988l-1.659 1.189c-.484-.676-1.052-1.184-1.703-1.523-.65-.338-1.42-.507-2.312-.507a6.31 6.31 0 00-1.776.246 4.441 4.441 0 00-1.47.725 3.55 3.55 0 00-1.003 1.204c-.253.483-.378 1.055-.378 1.711 0 1.026.261 1.814.785 2.365.523.551 1.178.986 1.963 1.305.786.319 1.64.6 2.562.842.92.242 1.775.566 2.56.972a5.5 5.5 0 011.964 1.697c.524.726.786 1.726.786 3.002 0 .928-.175 1.75-.525 2.465a5.44 5.44 0 01-1.41 1.813 6.132 6.132 0 01-2.052 1.116 7.782 7.782 0 01-2.416.378c-1.359 0-2.61-.237-3.754-.711-1.145-.474-2.124-1.271-2.939-2.393l1.833-1.218.004.001zM0 1.333h2.576v12.139h15.456V1.333h2.575v27.544h-2.575V15.805H2.576v13.072H0V1.333zm41.137 0h2.654l11.631 27.544h-2.888l-3.006-7.314H34.892l-3.122 7.314h-2.693l12.06-27.544zm1.21 2.801l-6.44 15.094h12.686L42.346 4.134zm21.546-2.801h7.26c.364 0 .859.013 1.483.04.625.026 1.3.104 2.03.233.728.13 1.47.337 2.224.622a6.3 6.3 0 012.03 1.245c.597.545 1.092 1.233 1.483 2.062.39.83.585 1.842.585 3.035 0 1.322-.228 2.412-.683 3.268-.455.856-1.028 1.55-1.717 2.082a7.228 7.228 0 01-2.284 1.186c-.832.259-1.627.441-2.38.545l8.04 13.227h-2.927L71.27 15.806h-4.8v13.072h-2.576V1.333h-.001zm2.575 12.139h5.465c1.352 0 2.452-.169 3.298-.506.845-.336 1.503-.752 1.971-1.245.468-.492.787-1.024.956-1.594.169-.57.254-1.09.254-1.556 0-.467-.085-.985-.254-1.556-.17-.57-.488-1.102-.956-1.595-.468-.492-1.125-.907-1.971-1.245-.846-.336-1.946-.505-3.298-.505h-5.465v9.803-.002zM91.253 1.333h3.864l10.07 23.11 10.07-23.11h3.669v27.544h-2.576V4.601h-.079l-10.538 24.277h-1.131L93.907 4.601h-.078v24.277h-2.575l-.001-27.545zm37.664 13.773c0-2.1.352-4.032 1.054-5.797.702-1.763 1.678-3.287 2.927-4.572 1.248-1.283 2.752-2.288 4.508-3.015 1.756-.726 3.688-1.09 5.796-1.09s4.04.364 5.796 1.09c1.756.726 3.259 1.731 4.507 3.015 1.249 1.285 2.226 2.808 2.928 4.572.702 1.764 1.054 3.696 1.054 5.797 0 2.101-.352 4.04-1.054 5.816-.702 1.776-1.679 3.307-2.928 4.59-1.248 1.284-2.751 2.284-4.507 2.995-1.756.714-3.688 1.07-5.796 1.07s-4.04-.356-5.796-1.07c-1.756-.713-3.26-1.71-4.508-2.995-1.249-1.283-2.225-2.814-2.927-4.59-.702-1.776-1.054-3.716-1.054-5.816zm2.577 0c0 1.711.273 3.307.819 4.785.547 1.479 1.327 2.763 2.342 3.852 1.015 1.09 2.245 1.945 3.688 2.567 1.445.622 3.063.934 4.86.934 1.797 0 3.415-.312 4.859-.934 1.445-.622 2.674-1.479 3.688-2.567 1.016-1.09 1.796-2.373 2.343-3.852.545-1.478.819-3.074.819-4.785 0-1.71-.274-3.307-.819-4.785-.547-1.478-1.327-2.761-2.343-3.851-1.014-1.09-2.244-1.945-3.688-2.567-1.444-.623-3.063-.934-4.859-.934-1.796 0-3.415.311-4.86.934-1.444.622-2.674 1.478-3.688 2.567-1.015 1.09-1.795 2.373-2.342 3.851-.546 1.479-.819 3.074-.819 4.785zm36.26-13.773h3.317l16.822 24.12h.078V1.334h2.576v27.544h-3.318l-16.822-24.12h-.078v24.12h-2.575V1.333zm34.854 0h2.576v27.544h-2.576V1.333zM240 24.56c-1.327 1.79-2.863 3.073-4.607 3.85-1.744.778-3.629 1.168-5.659 1.168-2.108 0-4.04-.356-5.796-1.07-1.756-.712-3.26-1.71-4.508-2.995-1.249-1.283-2.225-2.814-2.927-4.59-.702-1.776-1.054-3.716-1.054-5.816 0-2.1.352-4.032 1.054-5.797.702-1.763 1.678-3.287 2.927-4.571 1.248-1.284 2.752-2.289 4.508-3.016 1.756-.726 3.688-1.09 5.796-1.09 1.873 0 3.623.332 5.249.992 1.626.662 3.051 1.771 4.273 3.327l-2.107 1.75c-.859-1.296-1.959-2.242-3.299-2.84a10.034 10.034 0 00-4.117-.894c-1.796 0-3.415.311-4.86.934-1.444.622-2.674 1.478-3.689 2.567-1.014 1.09-1.794 2.373-2.341 3.851-.546 1.479-.819 3.074-.819 4.785 0 1.711.273 3.307.819 4.785.547 1.479 1.327 2.763 2.341 3.852 1.016 1.09 2.246 1.944 3.689 2.567 1.445.622 3.063.934 4.86.934.702 0 1.431-.084 2.185-.253a9.966 9.966 0 002.206-.778 10.5 10.5 0 002.048-1.322 8.458 8.458 0 001.718-1.926l2.108 1.595H240z" fill="#444546"/></svg>